<svg width="635" height="635" viewBox="0 0 635 635" fill="none" xmlns="http://www.w3.org/2000/svg">
<path d="M115.872 142.924C115.872 135.348 122.013 129.207 129.588 129.207H398.607V177.597H115.872V142.924Z" fill="black"/>
<path d="M117.897 139.654C121.13 154.205 230.883 249.928 230.883 249.928L230.883 318.969C230.883 318.969 121.556 216.55 116.969 206.034C112.382 195.518 114.665 125.104 117.897 139.654Z" fill="black"/>
<path d="M519.261 475.469C519.261 483.044 513.12 489.186 505.544 489.186H236.526V440.796H519.261V475.469Z" fill="black"/>
<path d="M516.925 479.925C511.653 470.513 397.526 363.973 400.584 363.093L399.469 296.308C399.469 296.308 518.729 408.039 520.966 422.139C523.204 436.239 522.197 489.337 516.925 479.925Z" fill="black"/>
<path d="M463.439 107.791L189.319 584.483L163.529 532.374L163.53 532.375L442.027 50.0001L442.027 50.001L463.439 107.791Z" fill="black"/>
</svg>
