<svg width="527" height="580" viewBox="0 0 527 580" fill="none" xmlns="http://www.w3.org/2000/svg">
<rect x="43.2041" y="81.2051" width="309.185" height="52.9167" fill="#B9B9B9"/>
<path d="M43.1807 81.2031L205.17 243.192L167.752 280.61L5.76293 118.621L43.1807 81.2031Z" fill="white"/>
<path d="M43 104C43 91.5 52 82.5 67 81L26.5 78L23 87.5L43 104Z" fill="black"/>
<path d="M51 164C48.3333 161.333 43 153.8 43 145L39 152L43 159.5L51 164Z" fill="black"/>
<rect x="484.331" y="474.858" width="309.185" height="52.9167" transform="rotate(180 484.331 474.858)" fill="#B9B9B9"/>
<rect x="484.331" y="474.825" width="232.806" height="52.9167" transform="rotate(-135 484.331 474.825)" fill="white"/>
<path d="M485 452C485 464.5 476 473.5 461 475L501.5 478L505 468.5L485 452Z" fill="black"/>
<path d="M476 391.5C481 396.5 484.5 402.7 484.5 411.5L489 404L485 396.5L476 391.5Z" fill="black"/>
<rect x="441.668" y="27.3027" width="637.234" height="52.9167" transform="rotate(120 441.668 27.3027)" fill="white"/>
</svg>
